<?xml version="1.0" encoding="utf-8"?>
<!-- Generator: Adobe Illustrator 22.1.0, SVG Export Plug-In . SVG Version: 6.00 Build 0)  -->
<svg version="1.1" id="Black" xmlns="http://www.w3.org/2000/svg" xmlns:xlink="http://www.w3.org/1999/xlink" x="0px" y="0px"
	 viewBox="0 0 355.3 65.2" style="enable-background:new 0 0 355.3 65.2;" xml:space="preserve">
<style type="text/css">
	.st0{fill-rule:evenodd;clip-rule:evenodd;fill:#231F20;}
	.st1{fill:none;stroke:#231F20;stroke-width:6.612;stroke-miterlimit:2.613;}
	.st2{fill-rule:evenodd;clip-rule:evenodd;fill:#006DB6;}
	.st3{fill:none;stroke:#FFFFFF;stroke-width:2.153;stroke-miterlimit:2.613;}
	.st4{fill:#FFFFFF;}
</style>
<title>mt-logo-mtsu-edit</title>
<g>
	<path class="st0" d="M57.2,18.6c6.5,0,13.1,0,19.6,0c6.5,0,13.1,0,19.7,0c-0.7,2.6-1.5,5.1-2.2,7.7c-0.7,2.5-1.5,5.1-2.2,7.7H81.3
		c0.4-1.5,0.8-2.9,1.2-4.4h-2.1c-0.9,3.3-1.9,6.6-2.8,9.9c-0.9,3.3-1.9,6.6-2.8,9.9H78c-1.1,3.7-2.1,7.4-3.2,11.1h-20
		c1.1-3.7,2.1-7.4,3.2-11.1h3.3c0.9-3.3,1.9-6.6,2.8-9.9c0.9-3.3,1.9-6.6,2.8-9.9h-2.1c-0.4,1.5-0.8,2.9-1.3,4.4H52.8
		c0.7-2.6,1.5-5.1,2.2-7.7C55.7,23.7,56.5,21.1,57.2,18.6"/>
	<path class="st1" d="M57.2,18.6c6.5,0,13.1,0,19.6,0c6.5,0,13.1,0,19.7,0c-0.7,2.6-1.5,5.1-2.2,7.7c-0.7,2.5-1.5,5.1-2.2,7.7H81.3
		c0.4-1.5,0.8-2.9,1.2-4.4h-2.1c-0.9,3.3-1.9,6.6-2.8,9.9c-0.9,3.3-1.9,6.6-2.8,9.9H78c-1.1,3.7-2.1,7.4-3.2,11.1h-20
		c1.1-3.7,2.1-7.4,3.2-11.1h3.3c0.9-3.3,1.9-6.6,2.8-9.9c0.9-3.3,1.9-6.6,2.8-9.9h-2.1c-0.4,1.5-0.8,2.9-1.3,4.4H52.8
		c0.7-2.6,1.5-5.1,2.2-7.7C55.7,23.7,56.5,21.1,57.2,18.6z"/>
	<path class="st0" d="M16.5,3.3h15.7c1.5,4.3,3.1,8.6,4.6,12.9c4-4.3,8-8.6,12-12.9h15.6c-1,3.7-2.1,7.3-3.1,11h-3.1
		c-0.9,3.3-1.9,6.6-2.8,9.9c-0.9,3.3-1.9,6.6-2.8,9.9h3.1c-1.1,3.7-2.1,7.4-3.2,11.1c-6.4,0-12.7,0-19.1,0c1.1-3.7,2.1-7.4,3.2-11.1
		h3.2c0.9-3.3,1.9-6.5,2.8-9.8c-2.4,2.5-4.9,5.1-7.3,7.6h-6.1c-1-2.5-2-5.1-3-7.6c-0.9,3.3-1.9,6.5-2.8,9.8h3.4
		c-1.1,3.7-2.1,7.4-3.2,11.1c-6.4,0-12.7,0-19.1,0c1.1-3.7,2.1-7.4,3.2-11.1h3.2c0.9-3.3,1.9-6.6,2.8-9.9c1-3.3,1.9-6.6,2.9-10h-3.2
		C14.4,10.6,15.4,7,16.5,3.3"/>
	<path class="st1" d="M16.5,3.3h15.7c1.5,4.3,3.1,8.6,4.6,12.9c4-4.3,8-8.6,12-12.9h15.6c-1,3.7-2.1,7.3-3.1,11h-3.1
		c-0.9,3.3-1.9,6.6-2.8,9.9c-0.9,3.3-1.9,6.6-2.8,9.9h3.1c-1.1,3.7-2.1,7.4-3.2,11.1c-6.4,0-12.7,0-19.1,0c1.1-3.7,2.1-7.4,3.2-11.1
		h3.2c0.9-3.3,1.9-6.5,2.8-9.8c-2.4,2.5-4.9,5.1-7.3,7.6h-6.1c-1-2.5-2-5.1-3-7.6c-0.9,3.3-1.9,6.5-2.8,9.8h3.4
		c-1.1,3.7-2.1,7.4-3.2,11.1c-6.4,0-12.7,0-19.1,0c1.1-3.7,2.1-7.4,3.2-11.1h3.2c0.9-3.3,1.9-6.6,2.8-9.9c1-3.3,1.9-6.6,2.9-10h-3.2
		C14.4,10.6,15.4,7,16.5,3.3z"/>
	<path class="st2" d="M57.2,18.6c6.5,0,13.1,0,19.6,0c6.5,0,13.1,0,19.7,0c-0.7,2.6-1.5,5.1-2.2,7.7c-0.7,2.5-1.5,5.1-2.2,7.7H81.3
		c0.4-1.5,0.8-2.9,1.2-4.4h-2.1c-0.9,3.3-1.9,6.6-2.8,9.9c-0.9,3.3-1.9,6.6-2.8,9.9H78c-1.1,3.7-2.1,7.4-3.2,11.1h-20
		c1.1-3.7,2.1-7.4,3.2-11.1h3.3c0.9-3.3,1.9-6.6,2.8-9.9c0.9-3.3,1.9-6.6,2.8-9.9h-2.1c-0.4,1.5-0.8,2.9-1.3,4.4H52.8
		c0.7-2.6,1.5-5.1,2.2-7.7C55.7,23.7,56.5,21.1,57.2,18.6"/>
	<path class="st3" d="M57.2,18.6c6.5,0,13.1,0,19.6,0c6.5,0,13.1,0,19.7,0c-0.7,2.6-1.5,5.1-2.2,7.7c-0.7,2.5-1.5,5.1-2.2,7.7H81.3
		c0.4-1.5,0.8-2.9,1.2-4.4h-2.1c-0.9,3.3-1.9,6.6-2.8,9.9c-0.9,3.3-1.9,6.6-2.8,9.9H78c-1.1,3.7-2.1,7.4-3.2,11.1h-20
		c1.1-3.7,2.1-7.4,3.2-11.1h3.3c0.9-3.3,1.9-6.6,2.8-9.9c0.9-3.3,1.9-6.6,2.8-9.9h-2.1c-0.4,1.5-0.8,2.9-1.3,4.4H52.8
		c0.7-2.6,1.5-5.1,2.2-7.7C55.7,23.7,56.5,21.1,57.2,18.6z"/>
	<path class="st2" d="M16.5,3.3h15.7c1.5,4.3,3.1,8.6,4.6,12.9c4-4.3,8-8.6,12-12.9h15.6c-1,3.7-2.1,7.3-3.1,11h-3.1
		c-0.9,3.3-1.9,6.6-2.8,9.9c-0.9,3.3-1.9,6.6-2.8,9.9c1,0,2.1,0,3.1,0c-1.1,3.7-2.1,7.4-3.2,11.1c-6.4,0-12.7,0-19.1,0
		c1.1-3.7,2.1-7.4,3.2-11.1h3.2c0.9-3.3,1.9-6.5,2.8-9.8c-2.4,2.5-4.9,5.1-7.3,7.6h-6.1c-1-2.5-2-5.1-3-7.6
		c-0.9,3.3-1.9,6.5-2.8,9.8h3.4c-1.1,3.7-2.1,7.4-3.2,11.1c-6.4,0-12.7,0-19.1,0c1.1-3.7,2.1-7.4,3.2-11.1h3.2
		c0.9-3.3,1.9-6.6,2.8-9.9c1-3.3,1.9-6.6,2.9-10h-3.2C14.4,10.6,15.4,7,16.5,3.3"/>
	<path class="st3" d="M16.5,3.3h15.7c1.5,4.3,3.1,8.6,4.6,12.9c4-4.3,8-8.6,12-12.9h15.6c-1,3.7-2.1,7.3-3.1,11h-3.1
		c-0.9,3.3-1.9,6.6-2.8,9.9c-0.9,3.3-1.9,6.6-2.8,9.9c1,0,2.1,0,3.1,0c-1.1,3.7-2.1,7.4-3.2,11.1c-6.4,0-12.7,0-19.1,0
		c1.1-3.7,2.1-7.4,3.2-11.1h3.2c0.9-3.3,1.9-6.5,2.8-9.8c-2.4,2.5-4.9,5.1-7.3,7.6h-6.1c-1-2.5-2-5.1-3-7.6
		c-0.9,3.3-1.9,6.5-2.8,9.8h3.4c-1.1,3.7-2.1,7.4-3.2,11.1c-6.4,0-12.7,0-19.1,0c1.1-3.7,2.1-7.4,3.2-11.1h3.2
		c0.9-3.3,1.9-6.6,2.8-9.9c1-3.3,1.9-6.6,2.9-10h-3.2C14.4,10.6,15.4,7,16.5,3.3z"/>
	<g>
		<path class="st4" d="M114.8,25.4c1.2,2.3,2.5,4.6,3.8,7c0.2-0.3,0.4-0.8,0.7-1.4c0.3-0.6,0.7-1.3,1.1-2.1s0.9-1.6,1.4-2.5
			s1-1.8,1.5-2.8c0.5-0.9,1-1.9,1.5-2.8c0.5-0.9,1-1.7,1.4-2.5h0.3c0.2,1.6,0.4,3.2,0.5,4.7c0.2,1.5,0.3,3,0.5,4.5
			c0.2,1.5,0.3,2.9,0.5,4.4c0.2,1.4,0.4,2.9,0.6,4.3c-0.2,0-0.4-0.1-0.6-0.1c-0.2,0-0.4,0-0.6,0c-0.2,0-0.4,0-0.6,0s-0.4,0-0.6,0.1
			c-0.2-2.3-0.4-4.5-0.6-6.6c-0.2-2.1-0.4-4.3-0.7-6.5h-0.1c-1.2,2.1-2.3,4.3-3.5,6.4c-1.1,2.1-2.2,4.3-3.2,6.7H118
			c-1-2.1-2.1-4.3-3.2-6.5c-1.1-2.2-2.2-4.4-3.4-6.6h-0.1c-0.1,1.1-0.3,2.2-0.4,3.4c-0.1,1.2-0.3,2.5-0.4,3.7s-0.2,2.3-0.3,3.4
			c-0.1,1.1-0.1,1.9-0.1,2.6c-0.3,0-0.6-0.1-0.9-0.1c-0.3,0-0.6,0-0.9,0.1c0.2-1.4,0.5-2.8,0.7-4.4c0.2-1.5,0.5-3.1,0.7-4.6
			c0.2-1.5,0.4-3.1,0.6-4.6c0.2-1.5,0.3-2.9,0.5-4.3h0.4C112.5,20.8,113.6,23.1,114.8,25.4z"/>
		<path class="st4" d="M133.6,22c0-1.1-0.1-2.2-0.1-3.3c0.2,0,0.4,0.1,0.6,0.1c0.2,0,0.4,0,0.6,0c0.2,0,0.4,0,0.6,0
			c0.2,0,0.4-0.1,0.6-0.1c-0.1,1.1-0.1,2.2-0.1,3.3c0,1.1-0.1,2.2-0.1,3.3v4.4c0,1.1,0,2.2,0.1,3.3c0,1.1,0.1,2.2,0.1,3.2
			c-0.4,0-0.8-0.1-1.3-0.1s-0.9,0-1.3,0.1c0.1-1.1,0.1-2.1,0.1-3.2c0-1.1,0.1-2.2,0.1-3.3v-4.4C133.6,24.2,133.6,23.1,133.6,22z"/>
		<path class="st4" d="M142,25.3c0-1.1,0-2.2-0.1-3.3c0-1.1-0.1-2.2-0.1-3.3c0.6,0,1.3,0.1,1.9,0.1s1.3,0,1.9,0c0.6,0,1.3,0,1.9-0.1
			c0.6,0,1.3-0.1,1.9-0.1c1.5,0,2.8,0.2,3.8,0.6c1.1,0.4,1.9,0.9,2.6,1.7c0.7,0.7,1.2,1.6,1.5,2.7c0.3,1,0.5,2.2,0.5,3.5
			c0,1.7-0.3,3.1-0.9,4.3c-0.6,1.2-1.3,2.1-2.2,2.8c-0.9,0.7-1.9,1.2-3,1.5c-1.1,0.3-2.1,0.4-3.2,0.4c-0.6,0-1.1,0-1.7,0
			c-0.6,0-1.1,0-1.7,0s-1.1,0-1.7,0c-0.6,0-1.1,0-1.7,0.1c0.1-1.1,0.1-2.1,0.1-3.2c0-1.1,0.1-2.2,0.1-3.3V25.3z M144.1,29.7
			c0,1.8,0.1,3.6,0.2,5.4c0.4,0.1,0.8,0.1,1.5,0.2c0.6,0,1.2,0.1,1.9,0.1c0.9,0,1.9-0.1,2.8-0.3c0.9-0.2,1.8-0.6,2.5-1.3
			c0.7-0.6,1.3-1.5,1.8-2.5c0.5-1.1,0.7-2.4,0.7-4.1c0-1.5-0.2-2.7-0.5-3.7c-0.4-1-0.9-1.7-1.5-2.3c-0.6-0.6-1.4-0.9-2.3-1.1
			s-1.9-0.3-2.9-0.3c-0.8,0-1.5,0-2.1,0.1c-0.7,0.1-1.3,0.1-1.8,0.2c-0.1,0.8-0.1,1.7-0.1,2.6c0,0.9,0,1.8,0,2.7V29.7z"/>
		<path class="st4" d="M163.1,25.3c0-1.1,0-2.2-0.1-3.3c0-1.1-0.1-2.2-0.1-3.3c0.6,0,1.3,0.1,1.9,0.1s1.3,0,1.9,0
			c0.6,0,1.3,0,1.9-0.1c0.6,0,1.3-0.1,1.9-0.1c1.5,0,2.8,0.2,3.8,0.6c1.1,0.4,1.9,0.9,2.6,1.7c0.7,0.7,1.2,1.6,1.5,2.7
			c0.3,1,0.5,2.2,0.5,3.5c0,1.7-0.3,3.1-0.9,4.3c-0.6,1.2-1.3,2.1-2.2,2.8c-0.9,0.7-1.9,1.2-3,1.5c-1.1,0.3-2.1,0.4-3.2,0.4
			c-0.6,0-1.1,0-1.7,0s-1.1,0-1.7,0s-1.1,0-1.7,0c-0.6,0-1.1,0-1.7,0.1c0.1-1.1,0.1-2.1,0.1-3.2c0-1.1,0.1-2.2,0.1-3.3V25.3z
			 M165.2,29.7c0,1.8,0.1,3.6,0.2,5.4c0.4,0.1,0.8,0.1,1.5,0.2c0.6,0,1.2,0.1,1.9,0.1c0.9,0,1.9-0.1,2.8-0.3
			c0.9-0.2,1.8-0.6,2.5-1.3c0.7-0.6,1.3-1.5,1.8-2.5c0.5-1.1,0.7-2.4,0.7-4.1c0-1.5-0.2-2.7-0.5-3.7c-0.4-1-0.9-1.7-1.5-2.3
			c-0.6-0.6-1.4-0.9-2.3-1.1s-1.9-0.3-2.9-0.3c-0.8,0-1.5,0-2.1,0.1c-0.7,0.1-1.3,0.1-1.8,0.2c-0.1,0.8-0.1,1.7-0.1,2.6
			c0,0.9,0,1.8,0,2.7V29.7z"/>
		<path class="st4" d="M184.2,22c0-1.1-0.1-2.2-0.1-3.3c0.2,0,0.4,0.1,0.6,0.1c0.2,0,0.4,0,0.6,0c0.2,0,0.4,0,0.6,0
			c0.2,0,0.4-0.1,0.6-0.1c-0.1,1.1-0.1,2.2-0.1,3.3c0,1.1-0.1,2.2-0.1,3.3c0,2.1,0,4,0,5.6c0,1.6,0,3,0.1,4.2c1.2,0,2.4,0,3.5,0
			c1.1,0,2.3-0.1,3.6-0.3c-0.1,0.3-0.1,0.6-0.1,0.8c0,0.2,0,0.4,0.1,0.7c-0.8,0-1.6-0.1-2.3-0.1c-0.8,0-1.6,0-2.3,0
			c-0.8,0-1.6,0-2.4,0s-1.5,0-2.4,0.1c0.1-1.1,0.1-2.1,0.1-3.2c0-1.1,0.1-2.2,0.1-3.3v-4.4C184.3,24.2,184.2,23.1,184.2,22z"/>
		<path class="st4" d="M198.2,22c0-1.1-0.1-2.2-0.1-3.3c0.8,0,1.5,0.1,2.3,0.1c0.8,0,1.5,0,2.3,0c0.8,0,1.5,0,2.3,0
			c0.7,0,1.5-0.1,2.3-0.1c-0.1,0.3-0.1,0.5-0.1,0.8s0,0.5,0.1,0.8c-0.5,0-1-0.1-1.5-0.1c-0.5,0-0.9-0.1-1.4-0.1
			c-0.5,0-1.1-0.1-1.6-0.1s-1.3,0-2.1,0c0,0.5,0,1.1-0.1,1.6c0,0.5,0,1.1,0,1.7c0,0.7,0,1.3,0,1.9c0,0.6,0,1.1,0,1.4
			c0.7,0,1.4,0,2,0c0.6,0,1.1,0,1.6-0.1c0.5,0,0.9-0.1,1.4-0.1c0.4,0,0.8-0.1,1.2-0.1c-0.1,0.3-0.1,0.5-0.1,0.8c0,0.3,0,0.5,0.1,0.8
			c-0.4-0.1-1-0.1-1.5-0.1c-0.6,0-1.2-0.1-1.8-0.1c-0.6,0-1.1,0-1.7,0c-0.5,0-0.9,0-1.2,0c0,0.2,0,0.3,0,0.5c0,0.2,0,0.4,0,0.7v1
			v1.5c0,1,0,1.8,0,2.4c0,0.6,0,1.1,0,1.4c0.6,0,1.2,0,1.8,0c0.6,0,1.3,0,1.9,0s1.2-0.1,1.8-0.1c0.6,0,1-0.1,1.4-0.2
			c0,0.1-0.1,0.3-0.1,0.4c0,0.1,0,0.3,0,0.4c0,0.3,0,0.5,0.1,0.7c-0.8,0-1.5-0.1-2.3-0.1s-1.5,0-2.3,0c-0.8,0-1.6,0-2.3,0
			c-0.8,0-1.5,0-2.3,0.1c0.1-1.1,0.1-2.2,0.1-3.3c0-1.1,0.1-2.2,0.1-3.3v-4.4C198.3,24.2,198.3,23.1,198.2,22z"/>
		<path class="st4" d="M221.8,20c-0.4,0-0.9,0-1.4,0c-0.5,0-1,0-1.5,0.1c-0.5,0-1,0.1-1.4,0.1c-0.5,0-0.9,0.1-1.2,0.1
			c0.1-0.3,0.1-0.6,0.1-0.8c0-0.2,0-0.5-0.1-0.8c1.1,0,2.2,0.1,3.3,0.1c1.1,0,2.2,0,3.3,0c1.1,0,2.2,0,3.3,0c1.1,0,2.2-0.1,3.3-0.1
			c-0.1,0.3-0.1,0.6-0.1,0.8c0,0.2,0,0.5,0.1,0.8c-0.4-0.1-0.8-0.1-1.2-0.1s-0.9-0.1-1.4-0.1c-0.5,0-1,0-1.5-0.1c-0.5,0-0.9,0-1.4,0
			c-0.1,1.8-0.1,3.5-0.1,5.3v4.4c0,1.1,0,2.2,0.1,3.3c0,1.1,0.1,2.2,0.1,3.2c-0.4,0-0.8-0.1-1.3-0.1c-0.4,0-0.9,0-1.3,0.1
			c0.1-1.1,0.1-2.1,0.1-3.2c0-1.1,0.1-2.2,0.1-3.3v-4.4C221.9,23.6,221.9,21.8,221.8,20z"/>
		<path class="st4" d="M233.8,22c0-1.1-0.1-2.2-0.1-3.3c0.8,0,1.5,0.1,2.3,0.1s1.5,0,2.3,0s1.5,0,2.3,0s1.5-0.1,2.3-0.1
			c-0.1,0.3-0.1,0.5-0.1,0.8s0,0.5,0.1,0.8c-0.5,0-1-0.1-1.5-0.1c-0.5,0-0.9-0.1-1.4-0.1c-0.5,0-1.1-0.1-1.6-0.1c-0.6,0-1.3,0-2.1,0
			c0,0.5,0,1.1-0.1,1.6c0,0.5,0,1.1,0,1.7c0,0.7,0,1.3,0,1.9c0,0.6,0,1.1,0,1.4c0.7,0,1.4,0,2,0c0.6,0,1.1,0,1.6-0.1
			c0.5,0,0.9-0.1,1.4-0.1c0.4,0,0.8-0.1,1.2-0.1c-0.1,0.3-0.1,0.5-0.1,0.8c0,0.3,0,0.5,0.1,0.8c-0.4-0.1-1-0.1-1.5-0.1
			s-1.2-0.1-1.8-0.1c-0.6,0-1.1,0-1.7,0s-0.9,0-1.2,0c0,0.2,0,0.3,0,0.5c0,0.2,0,0.4,0,0.7v1v1.5c0,1,0,1.8,0,2.4c0,0.6,0,1.1,0,1.4
			c0.6,0,1.2,0,1.8,0c0.6,0,1.3,0,1.9,0c0.6,0,1.2-0.1,1.8-0.1c0.6,0,1-0.1,1.4-0.2c0,0.1-0.1,0.3-0.1,0.4c0,0.1,0,0.3,0,0.4
			c0,0.3,0,0.5,0.1,0.7c-0.8,0-1.5-0.1-2.3-0.1c-0.8,0-1.5,0-2.3,0c-0.8,0-1.6,0-2.3,0c-0.8,0-1.5,0-2.3,0.1
			c0.1-1.1,0.1-2.2,0.1-3.3c0-1.1,0.1-2.2,0.1-3.3v-4.4C233.8,24.2,233.8,23.1,233.8,22z"/>
		<path class="st4" d="M256,29.6c-2.2-2.4-4.4-4.7-6.6-7.1c0,0.5,0,1.1-0.1,1.9c0,0.8,0,1.9,0,3.3c0,0.4,0,0.8,0,1.3
			c0,0.5,0,1.1,0,1.7c0,0.6,0,1.2,0,1.8c0,0.6,0,1.1,0.1,1.7c0,0.5,0,1,0.1,1.3c0,0.4,0,0.6,0.1,0.8c-0.3,0-0.6-0.1-0.9-0.1
			c-0.3,0-0.7,0-0.9,0.1c0-0.2,0.1-0.5,0.1-0.9s0.1-1,0.1-1.6c0-0.6,0.1-1.3,0.1-2.1c0-0.7,0.1-1.5,0.1-2.2c0-0.7,0-1.5,0.1-2.2
			c0-0.7,0-1.4,0-1.9c0-1.6,0-3,0-4.2c0-1.2,0-2.1-0.1-2.6h0.4c1,1.1,2.1,2.3,3.3,3.6c1.2,1.3,2.4,2.6,3.5,3.8
			c1.2,1.3,2.3,2.4,3.3,3.6c1,1.1,2,2.1,2.7,2.8v-3.5c0-1.8,0-3.5,0-5.2s-0.1-3.3-0.2-4.8c0.3,0.1,0.6,0.1,0.9,0.1
			c0.2,0,0.5,0,0.8-0.1c0,0.4-0.1,0.9-0.1,1.7c0,0.8-0.1,1.5-0.1,2.4c0,0.9-0.1,1.7-0.1,2.5c0,0.8-0.1,1.5-0.1,2c0,0.4,0,0.9,0,1.5
			c0,0.6,0,1.2,0,1.8c0,0.6,0,1.3,0,1.9c0,0.6,0,1.2,0,1.8c0,0.6,0,1,0,1.4c0,0.4,0,0.7,0,0.8h-0.4C260.3,34.3,258.2,32,256,29.6z"
			/>
		<path class="st4" d="M277.1,29.6c-2.2-2.4-4.4-4.7-6.6-7.1c0,0.5,0,1.1-0.1,1.9c0,0.8,0,1.9,0,3.3c0,0.4,0,0.8,0,1.3
			c0,0.5,0,1.1,0,1.7c0,0.6,0,1.2,0,1.8c0,0.6,0,1.1,0.1,1.7s0,1,0.1,1.3c0,0.4,0,0.6,0.1,0.8c-0.3,0-0.6-0.1-0.9-0.1
			c-0.3,0-0.7,0-0.9,0.1c0-0.2,0.1-0.5,0.1-0.9c0-0.5,0.1-1,0.1-1.6c0-0.6,0.1-1.3,0.1-2.1c0-0.7,0.1-1.5,0.1-2.2
			c0-0.7,0-1.5,0.1-2.2c0-0.7,0-1.4,0-1.9c0-1.6,0-3,0-4.2c0-1.2,0-2.1-0.1-2.6h0.4c1,1.1,2.1,2.3,3.3,3.6c1.2,1.3,2.4,2.6,3.5,3.8
			c1.2,1.3,2.3,2.4,3.3,3.6c1,1.1,2,2.1,2.7,2.8v-3.5c0-1.8,0-3.5,0-5.2s-0.1-3.3-0.2-4.8c0.3,0.1,0.6,0.1,0.9,0.1
			c0.2,0,0.5,0,0.8-0.1c0,0.4-0.1,0.9-0.1,1.7c0,0.8-0.1,1.5-0.1,2.4c0,0.9-0.1,1.7-0.1,2.5c0,0.8-0.1,1.5-0.1,2c0,0.4,0,0.9,0,1.5
			c0,0.6,0,1.2,0,1.8c0,0.6,0,1.3,0,1.9c0,0.6,0,1.2,0,1.8c0,0.6,0,1,0,1.4c0,0.4,0,0.7,0,0.8h-0.4C281.4,34.3,279.3,32,277.1,29.6z
			"/>
		<path class="st4" d="M290,22c0-1.1-0.1-2.2-0.1-3.3c0.8,0,1.5,0.1,2.3,0.1s1.5,0,2.3,0c0.8,0,1.5,0,2.3,0c0.7,0,1.5-0.1,2.3-0.1
			c-0.1,0.3-0.1,0.5-0.1,0.8s0,0.5,0.1,0.8c-0.5,0-1-0.1-1.5-0.1c-0.5,0-0.9-0.1-1.4-0.1c-0.5,0-1.1-0.1-1.6-0.1c-0.6,0-1.3,0-2.1,0
			c0,0.5,0,1.1-0.1,1.6c0,0.5,0,1.1,0,1.7c0,0.7,0,1.3,0,1.9c0,0.6,0,1.1,0,1.4c0.7,0,1.4,0,2,0c0.6,0,1.1,0,1.6-0.1
			c0.5,0,0.9-0.1,1.4-0.1c0.4,0,0.8-0.1,1.2-0.1c-0.1,0.3-0.1,0.5-0.1,0.8c0,0.3,0,0.5,0.1,0.8c-0.4-0.1-1-0.1-1.5-0.1
			s-1.2-0.1-1.8-0.1c-0.6,0-1.1,0-1.7,0c-0.5,0-0.9,0-1.2,0c0,0.2,0,0.3,0,0.5c0,0.2,0,0.4,0,0.7v1v1.5c0,1,0,1.8,0,2.4
			c0,0.6,0,1.1,0,1.4c0.6,0,1.2,0,1.8,0c0.6,0,1.3,0,1.9,0c0.6,0,1.2-0.1,1.8-0.1c0.6,0,1-0.1,1.4-0.2c0,0.1-0.1,0.3-0.1,0.4
			c0,0.1,0,0.3,0,0.4c0,0.3,0,0.5,0.1,0.7c-0.8,0-1.5-0.1-2.3-0.1c-0.8,0-1.5,0-2.3,0c-0.8,0-1.6,0-2.3,0c-0.8,0-1.5,0-2.3,0.1
			c0.1-1.1,0.1-2.2,0.1-3.3c0-1.1,0.1-2.2,0.1-3.3v-4.4C290.1,24.2,290.1,23.1,290,22z"/>
		<path class="st4" d="M304.1,33.9c0.2,0.3,0.5,0.6,0.8,0.9c0.3,0.3,0.7,0.5,1.2,0.6c0.4,0.2,0.9,0.2,1.5,0.2c0.6,0,1.1-0.1,1.5-0.3
			c0.5-0.2,0.8-0.5,1.1-0.8c0.3-0.3,0.6-0.7,0.7-1.2c0.2-0.5,0.3-0.9,0.3-1.4c0-0.8-0.2-1.4-0.6-1.9c-0.4-0.5-0.9-0.8-1.5-1.2
			s-1.2-0.6-1.9-0.8c-0.7-0.3-1.3-0.6-1.9-1c-0.6-0.4-1.1-0.9-1.5-1.5c-0.4-0.6-0.6-1.4-0.6-2.4c0-0.7,0.1-1.4,0.4-2
			c0.3-0.6,0.6-1.1,1.1-1.5c0.5-0.4,1.1-0.8,1.7-1c0.7-0.2,1.4-0.4,2.3-0.4c0.8,0,1.5,0.1,2.1,0.3c0.6,0.2,1.2,0.5,1.7,0.9
			c-0.2,0.3-0.3,0.6-0.4,0.9c-0.1,0.3-0.2,0.7-0.3,1.2h-0.3c-0.1-0.2-0.2-0.5-0.3-0.8c-0.1-0.3-0.3-0.5-0.6-0.8
			c-0.2-0.2-0.5-0.4-0.9-0.6c-0.3-0.2-0.7-0.2-1.2-0.2c-0.5,0-0.9,0.1-1.3,0.2c-0.4,0.2-0.7,0.4-1,0.7c-0.3,0.3-0.5,0.6-0.7,1
			c-0.2,0.4-0.2,0.8-0.2,1.3c0,0.8,0.2,1.4,0.6,1.9c0.4,0.5,0.9,0.8,1.5,1.2s1.2,0.6,1.9,0.8c0.7,0.2,1.3,0.5,1.9,0.9
			c0.6,0.4,1.1,0.8,1.5,1.4c0.4,0.6,0.6,1.3,0.6,2.2c0,0.8-0.1,1.5-0.4,2.2c-0.3,0.7-0.7,1.3-1.2,1.8c-0.5,0.5-1.2,0.9-2,1.2
			s-1.7,0.4-2.6,0.4c-1.1,0-1.9-0.1-2.6-0.4c-0.7-0.3-1.2-0.6-1.6-1c0.2-0.4,0.3-0.7,0.3-1.1c0.1-0.3,0.1-0.7,0.2-1.2h0.3
			C303.7,33.2,303.9,33.6,304.1,33.9z"/>
		<path class="st4" d="M318.2,33.9c0.2,0.3,0.5,0.6,0.8,0.9c0.3,0.3,0.7,0.5,1.2,0.6c0.4,0.2,0.9,0.2,1.5,0.2c0.6,0,1.1-0.1,1.5-0.3
			c0.5-0.2,0.8-0.5,1.1-0.8c0.3-0.3,0.6-0.7,0.7-1.2c0.2-0.5,0.3-0.9,0.3-1.4c0-0.8-0.2-1.4-0.6-1.9c-0.4-0.5-0.9-0.8-1.5-1.2
			c-0.6-0.3-1.2-0.6-1.9-0.8c-0.7-0.3-1.3-0.6-1.9-1c-0.6-0.4-1.1-0.9-1.5-1.5c-0.4-0.6-0.6-1.4-0.6-2.4c0-0.7,0.1-1.4,0.4-2
			c0.3-0.6,0.6-1.1,1.1-1.5s1.1-0.8,1.8-1c0.7-0.2,1.4-0.4,2.3-0.4c0.8,0,1.5,0.1,2.1,0.3c0.6,0.2,1.1,0.5,1.7,0.9
			c-0.2,0.3-0.3,0.6-0.4,0.9c-0.1,0.3-0.2,0.7-0.3,1.2h-0.3c-0.1-0.2-0.2-0.5-0.3-0.8c-0.1-0.3-0.3-0.5-0.6-0.8
			c-0.2-0.2-0.5-0.4-0.9-0.6s-0.7-0.2-1.2-0.2s-0.9,0.1-1.3,0.2c-0.4,0.2-0.7,0.4-1,0.7c-0.3,0.3-0.5,0.6-0.7,1
			c-0.2,0.4-0.2,0.8-0.2,1.3c0,0.8,0.2,1.4,0.6,1.9c0.4,0.5,0.9,0.8,1.5,1.2c0.6,0.3,1.2,0.6,1.9,0.8c0.7,0.2,1.3,0.5,1.9,0.9
			c0.6,0.4,1.1,0.8,1.5,1.4c0.4,0.6,0.6,1.3,0.6,2.2c0,0.8-0.1,1.5-0.4,2.2c-0.3,0.7-0.7,1.3-1.2,1.8s-1.2,0.9-2,1.2
			c-0.8,0.3-1.7,0.4-2.6,0.4c-1.1,0-1.9-0.1-2.6-0.4c-0.7-0.3-1.2-0.6-1.6-1c0.2-0.4,0.3-0.7,0.3-1.1c0.1-0.3,0.1-0.7,0.2-1.2h0.3
			C317.7,33.2,317.9,33.6,318.2,33.9z"/>
		<path class="st4" d="M332.2,22c0-1.1-0.1-2.2-0.1-3.3c0.8,0,1.5,0.1,2.3,0.1c0.8,0,1.5,0,2.3,0c0.8,0,1.5,0,2.3,0
			c0.7,0,1.5-0.1,2.3-0.1c-0.1,0.3-0.1,0.5-0.1,0.8s0,0.5,0.1,0.8c-0.5,0-1-0.1-1.5-0.1c-0.5,0-0.9-0.1-1.4-0.1
			c-0.5,0-1.1-0.1-1.6-0.1s-1.3,0-2.1,0c0,0.5,0,1.1-0.1,1.6c0,0.5,0,1.1,0,1.7c0,0.7,0,1.3,0,1.9c0,0.6,0,1.1,0,1.4
			c0.7,0,1.4,0,2,0c0.6,0,1.1,0,1.6-0.1c0.5,0,0.9-0.1,1.4-0.1s0.8-0.1,1.2-0.1c-0.1,0.3-0.1,0.5-0.1,0.8c0,0.3,0,0.5,0.1,0.8
			c-0.4-0.1-1-0.1-1.5-0.1c-0.6,0-1.2-0.1-1.8-0.1c-0.6,0-1.1,0-1.7,0c-0.5,0-0.9,0-1.2,0c0,0.2,0,0.3,0,0.5s0,0.4,0,0.7v1v1.5
			c0,1,0,1.8,0,2.4c0,0.6,0,1.1,0,1.4c0.6,0,1.2,0,1.8,0c0.6,0,1.3,0,1.9,0c0.6,0,1.2-0.1,1.8-0.1c0.6,0,1-0.1,1.4-0.2
			c0,0.1-0.1,0.3-0.1,0.4s0,0.3,0,0.4c0,0.3,0,0.5,0.1,0.7c-0.8,0-1.5-0.1-2.3-0.1c-0.8,0-1.5,0-2.3,0c-0.8,0-1.6,0-2.3,0
			c-0.8,0-1.5,0-2.3,0.1c0.1-1.1,0.1-2.2,0.1-3.3c0-1.1,0.1-2.2,0.1-3.3v-4.4C332.2,24.2,332.2,23.1,332.2,22z"/>
		<path class="st4" d="M346.2,22c0-1.1-0.1-2.2-0.1-3.3c0.8,0,1.5,0.1,2.3,0.1c0.8,0,1.5,0,2.3,0c0.8,0,1.5,0,2.3,0
			c0.7,0,1.5-0.1,2.3-0.1c-0.1,0.3-0.1,0.5-0.1,0.8s0,0.5,0.1,0.8c-0.5,0-1-0.1-1.5-0.1c-0.5,0-0.9-0.1-1.4-0.1
			c-0.5,0-1.1-0.1-1.6-0.1c-0.6,0-1.3,0-2.1,0c0,0.5,0,1.1-0.1,1.6c0,0.5,0,1.1,0,1.7c0,0.7,0,1.3,0,1.9c0,0.6,0,1.1,0,1.4
			c0.7,0,1.4,0,2,0c0.6,0,1.1,0,1.6-0.1c0.5,0,0.9-0.1,1.4-0.1c0.4,0,0.8-0.1,1.2-0.1c-0.1,0.3-0.1,0.5-0.1,0.8c0,0.3,0,0.5,0.1,0.8
			c-0.4-0.1-1-0.1-1.5-0.1s-1.2-0.1-1.8-0.1c-0.6,0-1.1,0-1.7,0c-0.5,0-0.9,0-1.2,0c0,0.2,0,0.3,0,0.5c0,0.2,0,0.4,0,0.7v1v1.5
			c0,1,0,1.8,0,2.4c0,0.6,0,1.1,0,1.4c0.6,0,1.2,0,1.8,0c0.6,0,1.3,0,1.9,0c0.6,0,1.2-0.1,1.8-0.1c0.6,0,1-0.1,1.4-0.2
			c0,0.1-0.1,0.3-0.1,0.4c0,0.1,0,0.3,0,0.4c0,0.3,0,0.5,0.1,0.7c-0.8,0-1.5-0.1-2.3-0.1c-0.8,0-1.5,0-2.3,0s-1.6,0-2.3,0
			c-0.8,0-1.5,0-2.3,0.1c0.1-1.1,0.1-2.2,0.1-3.3c0-1.1,0.1-2.2,0.1-3.3v-4.4C346.2,24.2,346.2,23.1,346.2,22z"/>
	</g>
	<g>
		<path class="st4" d="M100.9,57.9c0.2,0.3,0.4,0.5,0.7,0.7c0.3,0.2,0.6,0.4,1,0.5c0.4,0.1,0.8,0.2,1.3,0.2c0.5,0,0.9-0.1,1.3-0.3
			c0.4-0.2,0.7-0.4,1-0.7c0.3-0.3,0.5-0.6,0.6-1s0.2-0.8,0.2-1.2c0-0.7-0.2-1.2-0.5-1.6c-0.3-0.4-0.8-0.7-1.3-1
			c-0.5-0.3-1.1-0.5-1.7-0.7c-0.6-0.2-1.1-0.5-1.7-0.8c-0.5-0.3-0.9-0.7-1.3-1.3c-0.3-0.5-0.5-1.2-0.5-2.1c0-0.6,0.1-1.2,0.3-1.7
			c0.2-0.5,0.5-0.9,1-1.3c0.4-0.4,0.9-0.6,1.5-0.9c0.6-0.2,1.2-0.3,2-0.3c0.7,0,1.3,0.1,1.8,0.3c0.5,0.2,1,0.4,1.4,0.8
			c-0.1,0.2-0.2,0.5-0.3,0.8c-0.1,0.3-0.2,0.6-0.3,1.1h-0.3c-0.1-0.2-0.2-0.4-0.3-0.7c-0.1-0.2-0.3-0.5-0.5-0.7
			c-0.2-0.2-0.5-0.4-0.8-0.5c-0.3-0.1-0.6-0.2-1.1-0.2s-0.8,0.1-1.1,0.2c-0.3,0.1-0.6,0.3-0.9,0.6c-0.3,0.2-0.5,0.5-0.6,0.9
			c-0.1,0.3-0.2,0.7-0.2,1.1c0,0.7,0.2,1.2,0.5,1.6c0.3,0.4,0.8,0.7,1.3,1c0.5,0.3,1.1,0.5,1.7,0.7c0.6,0.2,1.1,0.5,1.7,0.8
			c0.5,0.3,0.9,0.7,1.3,1.2c0.3,0.5,0.5,1.1,0.5,1.9c0,0.7-0.1,1.3-0.4,1.9c-0.2,0.6-0.6,1.1-1.1,1.6c-0.5,0.4-1,0.8-1.7,1
			c-0.7,0.2-1.4,0.4-2.3,0.4c-0.9,0-1.6-0.1-2.2-0.4c-0.6-0.2-1-0.5-1.4-0.8c0.1-0.3,0.2-0.6,0.3-0.9c0.1-0.3,0.1-0.6,0.1-1h0.3
			C100.5,57.4,100.7,57.7,100.9,57.9z"/>
		<path class="st4" d="M119.4,46.1c-0.4,0-0.8,0-1.2,0c-0.4,0-0.8,0-1.2,0c-0.4,0-0.8,0-1.2,0.1c-0.4,0-0.7,0.1-1,0.1
			c0.1-0.3,0.1-0.5,0.1-0.7c0-0.2,0-0.4-0.1-0.7c1,0,1.9,0.1,2.8,0.1s1.9,0,2.8,0c1,0,1.9,0,2.8,0c0.9,0,1.9,0,2.8-0.1
			c-0.1,0.3-0.1,0.5-0.1,0.7c0,0.2,0,0.4,0.1,0.7c-0.3,0-0.7-0.1-1-0.1c-0.4,0-0.8-0.1-1.2-0.1c-0.4,0-0.8,0-1.2,0
			c-0.4,0-0.8,0-1.2,0c0,1.5-0.1,3-0.1,4.5v3.8c0,1,0,1.9,0.1,2.8c0,0.9,0.1,1.9,0.1,2.8c-0.3,0-0.7,0-1.1,0c-0.4,0-0.7,0-1.1,0
			c0-0.9,0.1-1.8,0.1-2.8c0-0.9,0.1-1.9,0.1-2.8v-3.8C119.5,49.1,119.4,47.6,119.4,46.1z"/>
		<path class="st4" d="M143.7,60c-0.2,0-0.4,0-0.6,0c-0.2,0-0.4,0-0.6,0c-0.2,0-0.4,0-0.6,0c-0.2,0-0.4,0-0.6,0
			c-0.1-0.3-0.2-0.7-0.4-1.2c-0.2-0.5-0.4-1-0.6-1.5c-0.2-0.5-0.4-1-0.6-1.6c-0.2-0.5-0.4-1-0.6-1.5c-0.5,0-0.9,0-1.4,0
			c-0.5,0-1,0-1.4,0c-0.5,0-0.9,0-1.3,0c-0.4,0-0.9,0-1.3,0c-0.5,1.1-0.9,2.2-1.3,3.3c-0.4,1-0.7,1.9-0.9,2.6c-0.2,0-0.5,0-0.8,0
			c-0.3,0-0.6,0-0.8,0c1.2-2.6,2.3-5.1,3.5-7.6c1.1-2.5,2.3-5.1,3.4-7.7h0.4c0.4,0.8,0.7,1.8,1.1,2.7c0.4,1,0.8,2,1.2,3
			c0.4,1,0.8,2,1.3,3s0.8,1.9,1.2,2.8c0.4,0.9,0.7,1.6,1,2.3C143.2,59.1,143.5,59.6,143.7,60z M134,53.2c0.4,0,0.8,0,1.2,0
			s0.8,0,1.2,0c0.4,0,0.8,0,1.2,0c0.4,0,0.8,0,1.2,0l-2.4-5.6L134,53.2z"/>
		<path class="st4" d="M152.1,46.1c-0.4,0-0.8,0-1.2,0s-0.8,0-1.2,0c-0.4,0-0.8,0-1.2,0.1c-0.4,0-0.7,0.1-1,0.1
			c0.1-0.3,0.1-0.5,0.1-0.7c0-0.2,0-0.4-0.1-0.7c1,0,1.9,0.1,2.8,0.1s1.9,0,2.8,0c1,0,1.9,0,2.8,0c0.9,0,1.9,0,2.8-0.1
			c-0.1,0.3-0.1,0.5-0.1,0.7c0,0.2,0,0.4,0.1,0.7c-0.3,0-0.7-0.1-1-0.1c-0.4,0-0.8-0.1-1.2-0.1c-0.4,0-0.8,0-1.2,0
			c-0.4,0-0.8,0-1.2,0c0,1.5-0.1,3-0.1,4.5v3.8c0,1,0,1.9,0.1,2.8c0,0.9,0.1,1.9,0.1,2.8c-0.3,0-0.7,0-1.1,0c-0.4,0-0.7,0-1.1,0
			c0-0.9,0.1-1.8,0.1-2.8c0-0.9,0.1-1.9,0.1-2.8v-3.8C152.2,49.1,152.2,47.6,152.1,46.1z"/>
		<path class="st4" d="M165.9,47.7c0-0.9-0.1-1.9-0.1-2.8c0.7,0,1.3,0.1,2,0.1c0.6,0,1.3,0,2,0c0.7,0,1.3,0,1.9,0
			c0.6,0,1.3,0,1.9-0.1c0,0.2-0.1,0.4-0.1,0.7s0,0.4,0.1,0.7c-0.5,0-0.9-0.1-1.3-0.1c-0.4,0-0.8-0.1-1.2-0.1c-0.4,0-0.9-0.1-1.4-0.1
			c-0.5,0-1.1,0-1.8,0c0,0.5,0,0.9-0.1,1.3c0,0.4,0,0.9,0,1.4c0,0.6,0,1.1,0,1.7c0,0.5,0,0.9,0,1.2c0.6,0,1.2,0,1.7,0
			c0.5,0,1,0,1.4-0.1c0.4,0,0.8,0,1.2-0.1s0.7,0,1-0.1c0,0.2-0.1,0.4-0.1,0.7c0,0.2,0,0.4,0.1,0.7c-0.4,0-0.8-0.1-1.3-0.1
			c-0.5,0-1,0-1.5-0.1c-0.5,0-1,0-1.4,0c-0.4,0-0.8,0-1.1,0c0,0.1,0,0.3,0,0.4c0,0.2,0,0.3,0,0.6v0.9v1.3c0,0.8,0,1.5,0,2.1
			c0,0.5,0,0.9,0,1.2c0.5,0,1,0,1.5,0c0.6,0,1.1,0,1.6,0c0.5,0,1-0.1,1.5-0.1c0.5,0,0.9-0.1,1.2-0.2c0,0.1,0,0.2-0.1,0.3
			c0,0.1,0,0.2,0,0.3c0,0.2,0,0.4,0.1,0.6c-0.7,0-1.3,0-2,0c-0.6,0-1.3,0-2,0c-0.7,0-1.3,0-2,0c-0.7,0-1.3,0-2,0
			c0-0.9,0.1-1.9,0.1-2.8c0-0.9,0.1-1.9,0.1-2.8v-3.8C165.9,49.6,165.9,48.7,165.9,47.7z"/>
		<path class="st4" d="M203.5,52.1c0-2.1,0-3.7,0-4.8c0-1.1-0.1-1.9-0.1-2.3c0.2,0,0.3,0.1,0.5,0.1c0.1,0,0.3,0,0.4,0
			c0.2,0,0.4,0,0.7-0.1c0,0.5-0.1,1.1-0.1,1.8c0,0.7-0.1,1.5-0.1,2.3c0,0.8-0.1,1.6-0.1,2.5c0,0.9-0.1,1.7-0.1,2.5
			c0,1-0.2,1.9-0.4,2.6c-0.3,0.8-0.7,1.4-1.2,2c-0.5,0.5-1.2,0.9-1.9,1.2c-0.8,0.3-1.6,0.4-2.6,0.4c-2.2,0-3.8-0.5-4.8-1.5
			c-1-1-1.5-2.6-1.5-4.7c0-0.7,0-1.3,0.1-1.8c0-0.5,0.1-1.1,0.1-1.6c0-1.2,0-2.3,0-3.3c0-0.9-0.1-1.8-0.1-2.4c0.2,0,0.4,0.1,0.6,0.1
			c0.2,0,0.4,0,0.6,0c0.2,0,0.3,0,0.5,0c0.2,0,0.3,0,0.5-0.1c0,0.3-0.1,0.7-0.1,1.3c0,0.5-0.1,1.1-0.1,1.8c0,0.7-0.1,1.4-0.1,2.1
			c0,0.8,0,1.5,0,2.4c0,0.5,0,1,0,1.5c0,0.5,0.1,1.1,0.2,1.6c0.1,0.5,0.2,1,0.4,1.4c0.2,0.5,0.5,0.9,0.8,1.2
			c0.4,0.3,0.8,0.6,1.4,0.8s1.2,0.3,2.1,0.3c0.8,0,1.5-0.1,2-0.4c0.5-0.2,1-0.5,1.3-0.9c0.3-0.4,0.6-0.8,0.8-1.3
			c0.2-0.5,0.3-1,0.4-1.6c0.1-0.5,0.1-1.1,0.2-1.6C203.5,53,203.5,52.5,203.5,52.1z"/>
		<path class="st4" d="M220.7,54.3c-1.9-2-3.8-4.1-5.7-6.1c0,0.4,0,1,0,1.6c0,0.7,0,1.6,0,2.8c0,0.3,0,0.7,0,1.1c0,0.5,0,0.9,0,1.4
			c0,0.5,0,1,0,1.5s0,1,0,1.4c0,0.4,0,0.8,0,1.1c0,0.3,0,0.6,0,0.7c-0.2,0-0.5,0-0.8,0c-0.3,0-0.6,0-0.8,0c0-0.1,0.1-0.4,0.1-0.8
			c0-0.4,0.1-0.9,0.1-1.4c0-0.5,0.1-1.1,0.1-1.8c0-0.6,0.1-1.3,0.1-1.9c0-0.6,0-1.3,0.1-1.9c0-0.6,0-1.2,0-1.6c0-1.4,0-2.6,0-3.6
			c0-1,0-1.8-0.1-2.3h0.4c0.9,1,1.8,2,2.9,3.1c1,1.1,2,2.2,3,3.3c1,1.1,1.9,2.1,2.8,3c0.9,1,1.7,1.8,2.4,2.4v-3c0-1.5,0-3,0-4.5
			c0-1.5-0.1-2.8-0.1-4.1c0.3,0.1,0.5,0.1,0.7,0.1c0.2,0,0.4,0,0.7-0.1c0,0.3-0.1,0.8-0.1,1.4c0,0.6-0.1,1.3-0.1,2.1
			c0,0.7-0.1,1.4-0.1,2.1c0,0.7,0,1.3,0,1.7c0,0.4,0,0.8,0,1.3c0,0.5,0,1,0,1.6c0,0.5,0,1.1,0,1.6c0,0.5,0,1.1,0,1.5
			c0,0.5,0,0.9,0,1.2c0,0.3,0,0.6,0,0.7h-0.3C224.4,58.3,222.6,56.3,220.7,54.3z"/>
		<path class="st4" d="M235.3,47.8c0-0.9-0.1-1.9-0.1-2.8c0.2,0,0.4,0.1,0.5,0.1c0.2,0,0.4,0,0.5,0c0.2,0,0.4,0,0.5,0
			c0.2,0,0.4,0,0.5-0.1c0,1-0.1,1.9-0.1,2.8c0,0.9-0.1,1.9-0.1,2.8v3.8c0,1,0,1.9,0.1,2.8c0,0.9,0.1,1.9,0.1,2.8c-0.3,0-0.7,0-1.1,0
			c-0.4,0-0.7,0-1.1,0c0-0.9,0.1-1.8,0.1-2.8c0-0.9,0.1-1.9,0.1-2.8v-3.8C235.4,49.6,235.4,48.7,235.3,47.8z"/>
		<path class="st4" d="M250.4,60c-0.3-0.9-0.7-1.9-1.2-3.1c-0.5-1.2-1-2.5-1.5-3.8c-0.5-1.3-1.1-2.7-1.7-4.1c-0.6-1.4-1.1-2.7-1.7-4
			c0.2,0,0.4,0.1,0.6,0.1c0.2,0,0.4,0,0.5,0c0.2,0,0.4,0,0.5,0c0.2,0,0.4,0,0.6-0.1c0.3,1,0.7,2,1.1,3c0.4,1.1,0.8,2.1,1.2,3.2
			c0.4,1.1,0.9,2.2,1.3,3.3c0.5,1.1,0.9,2.2,1.4,3.4c0.3-0.6,0.5-1.3,0.9-2s0.6-1.5,0.9-2.3c0.3-0.8,0.6-1.6,0.9-2.4
			c0.3-0.8,0.6-1.6,0.9-2.4c0.3-0.8,0.5-1.5,0.8-2.1c0.2-0.7,0.4-1.2,0.6-1.7c0.3,0.1,0.6,0.1,0.8,0.1c0.2,0,0.5,0,0.8-0.1
			c-1.1,2.5-2.2,5.1-3.3,7.6c-1.1,2.5-2.1,5-3,7.5c-0.2,0-0.5,0-0.7,0C250.8,59.9,250.6,60,250.4,60z"/>
		<path class="st4" d="M265.2,47.7c0-0.9-0.1-1.9-0.1-2.8c0.7,0,1.3,0.1,2,0.1c0.7,0,1.3,0,2,0c0.7,0,1.3,0,1.9,0
			c0.6,0,1.3,0,1.9-0.1c0,0.2-0.1,0.4-0.1,0.7s0,0.4,0.1,0.7c-0.5,0-0.9-0.1-1.3-0.1c-0.4,0-0.8-0.1-1.2-0.1c-0.4,0-0.9-0.1-1.4-0.1
			c-0.5,0-1.1,0-1.8,0c0,0.5,0,0.9-0.1,1.3c0,0.4,0,0.9,0,1.4c0,0.6,0,1.1,0,1.7c0,0.5,0,0.9,0,1.2c0.6,0,1.2,0,1.7,0
			c0.5,0,1,0,1.4-0.1c0.4,0,0.8,0,1.2-0.1c0.4,0,0.7,0,1-0.1c0,0.2-0.1,0.4-0.1,0.7c0,0.2,0,0.4,0.1,0.7c-0.4,0-0.8-0.1-1.3-0.1
			c-0.5,0-1,0-1.5-0.1c-0.5,0-1,0-1.4,0c-0.4,0-0.8,0-1.1,0c0,0.1,0,0.3,0,0.4c0,0.2,0,0.3,0,0.6v0.9v1.3c0,0.8,0,1.5,0,2.1
			c0,0.5,0,0.9,0,1.2c0.5,0,1,0,1.5,0c0.6,0,1.1,0,1.6,0c0.5,0,1-0.1,1.5-0.1s0.9-0.1,1.2-0.2c0,0.1,0,0.2-0.1,0.3
			c0,0.1,0,0.2,0,0.3c0,0.2,0,0.4,0.1,0.6c-0.7,0-1.3,0-2,0c-0.6,0-1.3,0-2,0c-0.7,0-1.3,0-2,0c-0.7,0-1.3,0-2,0
			c0-0.9,0.1-1.9,0.1-2.8c0-0.9,0.1-1.9,0.1-2.8v-3.8C265.2,49.6,265.2,48.7,265.2,47.7z"/>
		<path class="st4" d="M280.8,50.6c0-1,0-1.9-0.1-2.8c0-0.9-0.1-1.9-0.1-2.8c0.4,0,0.8,0.1,1.2,0.1c0.4,0,0.8,0,1.2,0s0.8,0,1.2-0.1
			c0.4,0,0.8-0.1,1.2-0.1c0.6,0,1.2,0.1,1.8,0.2s1,0.3,1.5,0.6c0.4,0.3,0.7,0.6,1,1.1c0.2,0.4,0.4,1,0.4,1.6c0,0.7-0.2,1.3-0.5,1.8
			c-0.3,0.5-0.7,0.9-1.1,1.2c-0.5,0.3-0.9,0.6-1.5,0.8c-0.5,0.2-1,0.3-1.4,0.4c0.2,0.2,0.4,0.5,0.7,0.9c0.3,0.4,0.6,0.8,1,1.3
			c0.4,0.5,0.8,1,1.2,1.5c0.4,0.5,0.8,1,1.2,1.5c0.4,0.5,0.7,0.9,1.1,1.3c0.3,0.4,0.6,0.7,0.8,0.9c-0.2,0-0.4,0-0.7,0
			c-0.2,0-0.4,0-0.7,0c-0.2,0-0.4,0-0.6,0c-0.2,0-0.4,0-0.6,0c-0.2-0.3-0.6-0.8-1-1.4s-0.9-1.3-1.5-2c-0.5-0.7-1.1-1.4-1.7-2.1
			c-0.6-0.7-1.1-1.3-1.5-1.8h-0.8v1.6c0,1,0,1.9,0.1,2.8c0,0.9,0.1,1.9,0.1,2.8c-0.3,0-0.7,0-1.1,0c-0.4,0-0.7,0-1.1,0
			c0-0.9,0.1-1.8,0.1-2.8c0-0.9,0.1-1.9,0.1-2.8V50.6z M282.6,51.9c0.2,0,0.4,0.1,0.7,0.1c0.2,0,0.5,0,0.8,0c0.5,0,0.9-0.1,1.4-0.2
			c0.5-0.1,0.9-0.3,1.3-0.5c0.4-0.3,0.7-0.6,1-1c0.3-0.4,0.4-1,0.4-1.6c0-0.6-0.1-1-0.3-1.4c-0.2-0.4-0.5-0.7-0.8-0.9
			c-0.3-0.2-0.7-0.4-1.1-0.4c-0.4-0.1-0.8-0.1-1.2-0.1c-0.5,0-0.9,0-1.3,0c-0.3,0-0.6,0-0.9,0.1c0,0.8-0.1,1.6-0.1,2.4
			c0,0.8,0,1.6,0,2.4V51.9z"/>
		<path class="st4" d="M298.7,57.9c0.2,0.3,0.4,0.5,0.7,0.7c0.3,0.2,0.6,0.4,1,0.5c0.4,0.1,0.8,0.2,1.3,0.2c0.5,0,0.9-0.1,1.3-0.3
			s0.7-0.4,1-0.7c0.3-0.3,0.5-0.6,0.6-1s0.2-0.8,0.2-1.2c0-0.7-0.2-1.2-0.5-1.6c-0.3-0.4-0.8-0.7-1.3-1c-0.5-0.3-1.1-0.5-1.7-0.7
			c-0.6-0.2-1.1-0.5-1.7-0.8c-0.5-0.3-0.9-0.7-1.3-1.3c-0.3-0.5-0.5-1.2-0.5-2.1c0-0.6,0.1-1.2,0.3-1.7c0.2-0.5,0.5-0.9,1-1.3
			c0.4-0.4,0.9-0.6,1.5-0.9s1.2-0.3,2-0.3c0.7,0,1.3,0.1,1.8,0.3c0.5,0.2,1,0.4,1.4,0.8c-0.1,0.2-0.2,0.5-0.3,0.8
			c-0.1,0.3-0.2,0.6-0.3,1.1h-0.3c-0.1-0.2-0.2-0.4-0.3-0.7c-0.1-0.2-0.3-0.5-0.5-0.7c-0.2-0.2-0.5-0.4-0.8-0.5
			c-0.3-0.1-0.6-0.2-1.1-0.2c-0.4,0-0.8,0.1-1.1,0.2c-0.3,0.1-0.6,0.3-0.9,0.6c-0.3,0.2-0.5,0.5-0.6,0.9c-0.1,0.3-0.2,0.7-0.2,1.1
			c0,0.7,0.2,1.2,0.5,1.6c0.3,0.4,0.8,0.7,1.3,1c0.5,0.3,1.1,0.5,1.7,0.7c0.6,0.2,1.1,0.5,1.7,0.8c0.5,0.3,0.9,0.7,1.3,1.2
			c0.3,0.5,0.5,1.1,0.5,1.9c0,0.7-0.1,1.3-0.4,1.9c-0.2,0.6-0.6,1.1-1.1,1.6c-0.5,0.4-1,0.8-1.7,1c-0.7,0.2-1.4,0.4-2.3,0.4
			c-0.9,0-1.6-0.1-2.2-0.4c-0.6-0.2-1-0.5-1.4-0.8c0.1-0.3,0.2-0.6,0.3-0.9c0.1-0.3,0.1-0.6,0.1-1h0.3
			C298.4,57.4,298.5,57.7,298.7,57.9z"/>
		<path class="st4" d="M314.2,47.8c0-0.9-0.1-1.9-0.1-2.8c0.2,0,0.4,0.1,0.5,0.1c0.2,0,0.3,0,0.5,0c0.2,0,0.3,0,0.5,0
			c0.2,0,0.4,0,0.5-0.1c0,1-0.1,1.9-0.1,2.8c0,0.9-0.1,1.9-0.1,2.8v3.8c0,1,0,1.9,0.1,2.8c0,0.9,0.1,1.9,0.1,2.8c-0.3,0-0.7,0-1.1,0
			c-0.4,0-0.7,0-1.1,0c0-0.9,0.1-1.8,0.1-2.8c0-0.9,0.1-1.9,0.1-2.8v-3.8C314.3,49.6,314.3,48.7,314.2,47.8z"/>
		<path class="st4" d="M327.9,46.1c-0.4,0-0.8,0-1.2,0c-0.4,0-0.8,0-1.2,0c-0.4,0-0.8,0-1.2,0.1c-0.4,0-0.7,0.1-1,0.1
			c0.1-0.3,0.1-0.5,0.1-0.7c0-0.2,0-0.4-0.1-0.7c1,0,1.9,0.1,2.8,0.1s1.9,0,2.8,0c1,0,1.9,0,2.8,0c0.9,0,1.9,0,2.8-0.1
			c-0.1,0.3-0.1,0.5-0.1,0.7c0,0.2,0,0.4,0.1,0.7c-0.3,0-0.7-0.1-1-0.1s-0.8-0.1-1.2-0.1c-0.4,0-0.8,0-1.2,0c-0.4,0-0.8,0-1.2,0
			c0,1.5-0.1,3-0.1,4.5v3.8c0,1,0,1.9,0.1,2.8c0,0.9,0.1,1.9,0.1,2.8c-0.3,0-0.7,0-1.1,0c-0.4,0-0.7,0-1.1,0c0-0.9,0.1-1.8,0.1-2.8
			c0-0.9,0.1-1.9,0.1-2.8v-3.8C328,49.1,328,47.6,327.9,46.1z"/>
		<path class="st4" d="M345.4,53.8c-0.1-0.2-0.4-0.6-0.6-1.1c-0.3-0.5-0.6-1-0.9-1.6c-0.3-0.6-0.7-1.2-1.1-1.8
			c-0.4-0.6-0.7-1.2-1.1-1.8c-0.3-0.6-0.7-1.1-0.9-1.6c-0.3-0.5-0.5-0.8-0.6-1c0.2,0,0.4,0.1,0.6,0.1s0.4,0,0.6,0c0.2,0,0.4,0,0.6,0
			c0.2,0,0.4,0,0.6-0.1c0.7,1.3,1.3,2.5,2,3.7s1.4,2.5,2.2,3.8c0.3-0.5,0.7-1.1,1.1-1.7s0.7-1.3,1.1-1.9c0.4-0.7,0.7-1.3,1.1-2
			c0.3-0.7,0.6-1.3,0.9-1.9c0.4,0.1,0.7,0.1,0.9,0.1s0.5,0,0.9-0.1c-0.7,1.1-1.3,2-1.9,2.9c-0.6,0.9-1,1.6-1.5,2.3
			c-0.4,0.7-0.8,1.3-1.1,1.9c-0.3,0.6-0.6,1.1-0.8,1.5c0,0.5,0,1.1,0,1.7c0,0.6,0,1.2,0,1.8c0,0.6,0,1.1,0.1,1.6
			c0,0.5,0,0.9,0.1,1.2c-0.3,0-0.7,0-1.1,0c-0.4,0-0.7,0-1.1,0c0.1-0.8,0.1-1.7,0.2-2.8C345.3,56.1,345.4,55,345.4,53.8z"/>
	</g>
	<g>
		<path class="st4" d="M79.5,63.5V62h-0.5v-0.3h1.4V62h-0.5v1.5H79.5z"/>
		<path class="st4" d="M80.6,63.5v-1.8h0.5l0.3,1.2l0.3-1.2h0.5v1.8H82V62l-0.4,1.4h-0.3L80.9,62v1.4H80.6z"/>
	</g>
</g>
</svg>
